<svg width="20" height="21" viewBox="0 0 20 21" fill="none" xmlns="http://www.w3.org/2000/svg">
<path fill-rule="evenodd" clip-rule="evenodd" d="M2.05802 4.22474C2.88177 3.40098 4.17109 3.20834 5.83329 3.20834H14.1666C15.8288 3.20834 17.1181 3.40098 17.9419 4.22474C18.7657 5.04849 18.9583 6.33781 18.9583 8.00001V8.83334C18.9583 9.17852 18.6785 9.45834 18.3333 9.45834C17.5285 9.45834 16.875 10.1119 16.875 10.9167C16.875 11.7215 17.5285 12.375 18.3333 12.375C18.6785 12.375 18.9583 12.6548 18.9583 13C18.9583 14.6622 18.7657 15.9515 17.9419 16.7753C17.1181 17.599 15.8288 17.7917 14.1666 17.7917H5.83329C4.17109 17.7917 2.88177 17.599 2.05802 16.7753C1.23426 15.9515 1.04163 14.6622 1.04163 13V12.5833C1.04163 12.2382 1.32145 11.9583 1.66663 11.9583C2.47145 11.9583 3.12496 11.3048 3.12496 10.5C3.12496 9.69519 2.47145 9.04168 1.66663 9.04168C1.32145 9.04168 1.04163 8.76185 1.04163 8.41668V8.00001C1.04163 6.33781 1.23426 5.04849 2.05802 4.22474ZM2.29213 7.86435C3.48599 8.14686 4.37496 9.22011 4.37496 10.5C4.37496 11.7799 3.48599 12.8532 2.29213 13.1357C2.30408 14.7145 2.52736 15.4769 2.9419 15.8914C3.36815 16.3176 4.16216 16.5417 5.83329 16.5417H14.1666C15.8378 16.5417 16.6318 16.3176 17.058 15.8914C17.4345 15.5149 17.6532 14.8515 17.6992 13.5503C16.5096 13.2647 15.625 12.1935 15.625 10.9167C15.625 9.63659 16.5142 8.56323 17.7083 8.28089V8.00001C17.7083 6.32888 17.4843 5.53486 17.058 5.10862C16.6318 4.68237 15.8378 4.45834 14.1666 4.45834H5.83329C4.16216 4.45834 3.36815 4.68237 2.9419 5.10862C2.52736 5.52316 2.30408 6.28556 2.29213 7.86435Z" fill="#4F4F4F"/>
<path fill-rule="evenodd" clip-rule="evenodd" d="M12.9419 7.34975C13.186 7.59382 13.186 7.98955 12.9419 8.23363L7.94194 13.2336C7.69786 13.4777 7.30214 13.4777 7.05806 13.2336C6.81398 12.9896 6.81398 12.5938 7.05806 12.3497L12.0581 7.34975C12.3021 7.10567 12.6979 7.10567 12.9419 7.34975Z" fill="#4F4F4F"/>
<path fill-rule="evenodd" clip-rule="evenodd" d="M11.6621 12.7917C11.6621 12.3314 12.0352 11.9583 12.4954 11.9583H12.5029C12.9632 11.9583 13.3363 12.3314 13.3363 12.7917C13.3363 13.2519 12.9632 13.625 12.5029 13.625H12.4954C12.0352 13.625 11.6621 13.2519 11.6621 12.7917Z" fill="#4F4F4F"/>
<path fill-rule="evenodd" clip-rule="evenodd" d="M6.66211 8.20833C6.66211 7.7481 7.03521 7.375 7.49544 7.375H7.50293C7.96316 7.375 8.33626 7.7481 8.33626 8.20833C8.33626 8.66857 7.96316 9.04167 7.50293 9.04167H7.49544C7.03521 9.04167 6.66211 8.66857 6.66211 8.20833Z" fill="#4F4F4F"/>
</svg>
